<?xml version="1.0" encoding="utf-8"?>
<!-- Generator: Adobe Illustrator 15.1.0, SVG Export Plug-In . SVG Version: 6.00 Build 0)  -->
<!DOCTYPE svg PUBLIC "-//W3C//DTD SVG 1.1//EN" "http://www.w3.org/Graphics/SVG/1.1/DTD/svg11.dtd">
<svg version="1.1" id="Ebene_1" xmlns="http://www.w3.org/2000/svg" xmlns:xlink="http://www.w3.org/1999/xlink" x="0px" y="0px"
	 viewBox="0 0 25.754 29.612" enable-background="new 0 0 25.754 29.612" xml:space="preserve" width="100%" height="100%">
<g>

	<path clip-path="url(#SVGID_2_)" fill="#0054a6" d="M8.383,7.149c2.159,0.101,3.982-1.393,4.074-3.337
		c0.092-1.944-1.585-3.602-3.744-3.703C6.554,0.008,4.731,1.502,4.641,3.446C4.548,5.39,6.226,7.048,8.383,7.149"/>
	<path clip-path="url(#SVGID_2_)" fill="#0054a6" d="M18.917,0.141c0,0-2.026,3.586-6.545,6.153C7.853,8.86,3.839,10.352,0,16.297
		c0,0,1.141-0.527,0.351,0.748c0,0,0.592-0.56,1.097-0.728c0,0,0.307-0.064,0.175,0.309c0,0,2.027-1.571,1.514-0.812
		c-0.31,0.458,1.607-1.448,1.837-1.261c0,0,0.066,0.115-0.222,0.551c0,0,4.572-2.753,6.282-3.48
		c7.404-3.149,8.993-8.357,8.312-11.297C19.347,0.327,19.32-0.262,18.917,0.141"/>
	<path clip-path="url(#SVGID_2_)" fill="#0054a6" d="M3.477,25.509c0,0,0.318-7.721,5.122-11.669
		c4.804-3.948,9.388-3.224,11.297-3.356c0,0,3.904,0.11,5.857-0.548c0,0,0.285,3.444-9.301,5.089c0,0-3.159-0.044-5.857,3.553
		c0,0-2.676,3.005-5.155,9.213c0,0-0.022-0.898-0.373-0.263l-0.921,2.084l-0.033-1.963c0,0-0.164-0.494-0.384,0.186
		c0,0-0.175,0.231,0.121-2.38C3.85,25.455,3.773,24.896,3.477,25.509"/>
</g>
</svg>
