<?xml version="1.0" encoding="utf-8"?>
<!-- Generator: Adobe Illustrator 15.1.0, SVG Export Plug-In  -->
<!DOCTYPE svg PUBLIC "-//W3C//DTD SVG 1.1//EN" "http://www.w3.org/Graphics/SVG/1.1/DTD/svg11.dtd" [
	<!ENTITY ns_flows "http://ns.adobe.com/Flows/1.0/">
]>
<svg version="1.1"
	 xmlns="http://www.w3.org/2000/svg" xmlns:xlink="http://www.w3.org/1999/xlink" xmlns:a="http://ns.adobe.com/AdobeSVGViewerExtensions/3.0/"
	 x="0px" y="0px" width="59px" height="3px" viewBox="0 0 59 3" overflow="visible" enable-background="new 0 0 59 3"
	 xml:space="preserve">
<defs>
</defs>
<g>
	<defs>
		<rect id="SVGID_1_" width="58.535" height="3"/>
	</defs>
	<clipPath id="SVGID_2_">
		<use xlink:href="#SVGID_1_"  overflow="visible"/>
	</clipPath>
	<path clip-path="url(#SVGID_2_)" fill="#EBB800" d="M0.774,2.709C0.695,2.675,0.563,2.618,0.429,2.565
		c-0.3-0.119-0.435-0.262-0.424-0.434c0.014-0.194-0.01-0.389,0.01-0.583c0.01-0.109-0.098-0.224,0.156-0.326
		c0.095-0.038,0.104-0.18,0.012-0.219c-0.389-0.17-0.037-0.294,0.088-0.433c0.475-0.036,0.972,0.044,1.436-0.077
		c0.111-0.029,0.381,0.038,0.567,0.071c0.237,0.042,0.413-0.101,0.711-0.012c0.184,0.056,0.545,0.011,0.828,0.011
		c0.282,0,0.566-0.008,0.845,0.001C5.104,0.58,5.583,0.506,5.993,0.64l0.092,0.001c0.32-0.026,0.704-0.109,0.94-0.063
		c0.307,0.06,0.585,0.05,0.879,0.064C8.195,0.657,8.48,0.62,8.787,0.707c0.179,0.05,0.519-0.091,0.843-0.068
		c0.352,0.024,0.717-0.032,1.062,0.073c0.143,0.043,0.448,0.032,0.642,0.003c0.741-0.112,1.45-0.047,2.203-0.015
		c0.828,0.035,1.692,0.071,2.565-0.04c0.567-0.072,1.27-0.063,1.943,0.03c0.542-0.165,1.212-0.164,1.907-0.087
		c0.142,0.016,0.296,0.045,0.431,0.035c0.951-0.069,0.943-0.051,1.73-0.007c0.402,0.023,0.85,0.06,1.264-0.039
		c0.143-0.034,0.354-0.027,0.534-0.028c1.066-0.002,2.133-0.002,3.198,0.001c0.205,0,0.407,0.024,0.608,0.044
		c0.395,0.039,0.833,0.005,1.254-0.004c0.111-0.003,0.22-0.036,0.333-0.04c0.883-0.029,1.766-0.051,2.647-0.081
		c0.19-0.007,0.373-0.05,0.56-0.05c0.17-0.002,0.343,0.053,0.509,0.048c0.508-0.015,1.012-0.053,1.52-0.072
		c0.362-0.014,0.703,0.019,1.059,0.066c0.32,0.042,0.704,0.188,1.059,0.01c0.355,0.133,0.71-0.017,1.067-0.003
		c0.358,0.014,0.724,0.058,1.052,0.064c0.654,0.011,1.355,0.106,1.994-0.058c0.091-0.024,0.247,0,0.372-0.003
		c0.945-0.027,1.909,0.066,2.838-0.076c0.083-0.013,0.187-0.004,0.281-0.002c0.574,0.018,1.103,0.113,1.738,0.016
		c0.525-0.08,1.177-0.016,1.772-0.016c0.627,0,1.254,0.002,1.881-0.001c0.182-0.001,0.403,0.012,0.533-0.026
		c0.187-0.055,0.273-0.04,0.473-0.006c0.271,0.045,0.662,0.073,0.896,0.023c0.512-0.11,1.032-0.079,1.531-0.06
		c0.75,0.029,1.442-0.099,2.18-0.088c0.72,0.011,1.441,0.003,2.164,0.003h0.635c0.156,0.22,0.351,0.425,0.44,0.637
		c0.117,0.288-0.118,0.568-0.294,0.842c-0.094,0.146-0.1,0.264,0.105,0.372c-0.17,0.395-1.223,0.43-1.594,0.747
		c-0.637-0.138-1.252-0.109-1.858-0.109c-1.63-0.001-3.26,0.002-4.891-0.001c-0.795-0.002-1.562,0.136-2.367,0.077
		c-0.257-0.018-0.509-0.061-0.768-0.074c-0.279-0.012-0.597-0.036-0.842,0.004c-0.719,0.117-1.475,0.104-2.181,0.062
		c-2.325-0.14-4.653-0.044-6.978-0.064c-2.318-0.02-4.64-0.01-6.958-0.002c-0.917,0.005-1.825,0.068-2.741,0.093
		c-0.651,0.017-1.269,0.105-1.921-0.013c-0.184-0.033-0.517-0.042-0.637,0.003c-0.312,0.118-0.651,0.066-0.972,0.067
		C22.354,2.9,21.101,2.89,19.848,2.899c-0.603,0.005-1.202-0.035-1.815,0.062c-0.317,0.05-0.779,0.065-1.157-0.044
		c-0.128-0.037-0.357-0.02-0.54-0.021c-0.721-0.002-1.443,0.005-2.163-0.003c-0.293-0.004-0.624,0.056-0.878-0.063L13.124,2.82
		c-0.893,0.167-1.831,0.049-2.745,0.072C9.473,2.913,8.558,2.919,7.652,2.892c-1.242-0.037-2.446,0.104-3.685,0.09
		C3.114,2.973,2.319,2.893,1.524,2.785C1.327,2.76,1.121,2.743,0.774,2.709"/>
</g>
</svg>
